<svg xmlns="http://www.w3.org/2000/svg" viewBox="0 0 1920 1080" width="1920" height="1080">
<title>Inspection desk with mirror</title>
<defs>
<filter id="piece" x="-6%" y="-6%" width="112%" height="112%" color-interpolation-filters="sRGB">
  <feTurbulence type="fractalNoise" baseFrequency="0.016" numOctaves="2" seed="7" result="warp"/>
  <feDisplacementMap in="SourceGraphic" in2="warp" scale="5" xChannelSelector="R" yChannelSelector="G" result="shape"/>
  <feTurbulence type="fractalNoise" baseFrequency="0.55" numOctaves="3" seed="2" result="fibre"/>
  <feDiffuseLighting in="fibre" surfaceScale="0.8" lighting-color="#ffffff" result="lit"><feDistantLight azimuth="225" elevation="70"/></feDiffuseLighting>
  <feComposite in="shape" in2="lit" operator="arithmetic" k1="1.1" k2="0" k3="0" k4="0" result="tex"/>
  <feComposite in="tex" in2="shape" operator="in" result="body"/>
  <feDropShadow in="body" dx="5" dy="8" stdDeviation="4.5" flood-color="#14262c" flood-opacity="0.34"/>
</filter>
<filter id="pieceSoft" x="-6%" y="-6%" width="112%" height="112%" color-interpolation-filters="sRGB">
  <feTurbulence type="fractalNoise" baseFrequency="0.012" numOctaves="2" seed="11" result="warp"/>
  <feDisplacementMap in="SourceGraphic" in2="warp" scale="7" xChannelSelector="R" yChannelSelector="G" result="shape"/>
  <feTurbulence type="fractalNoise" baseFrequency="0.5" numOctaves="3" seed="5" result="fibre"/>
  <feDiffuseLighting in="fibre" surfaceScale="0.7" lighting-color="#ffffff" result="lit"><feDistantLight azimuth="225" elevation="72"/></feDiffuseLighting>
  <feComposite in="shape" in2="lit" operator="arithmetic" k1="1.08" k2="0" k3="0" k4="0" result="tex"/>
  <feComposite in="tex" in2="shape" operator="in" result="body"/>
  <feDropShadow in="body" dx="8" dy="12" stdDeviation="9" flood-color="#14262c" flood-opacity="0.28"/>
</filter>
<filter id="pieceFlat" x="-4%" y="-4%" width="108%" height="108%" color-interpolation-filters="sRGB">
  <feTurbulence type="fractalNoise" baseFrequency="0.02" numOctaves="2" seed="4" result="warp"/>
  <feDisplacementMap in="SourceGraphic" in2="warp" scale="3" xChannelSelector="R" yChannelSelector="G" result="shape"/>
  <feTurbulence type="fractalNoise" baseFrequency="0.6" numOctaves="3" seed="9" result="fibre"/>
  <feDiffuseLighting in="fibre" surfaceScale="0.7" lighting-color="#ffffff" result="lit"><feDistantLight azimuth="225" elevation="72"/></feDiffuseLighting>
  <feComposite in="shape" in2="lit" operator="arithmetic" k1="1.08" k2="0" k3="0" k4="0" result="tex"/>
  <feComposite in="tex" in2="shape" operator="in"/>
</filter>
<filter id="blur8" x="-20%" y="-20%" width="140%" height="140%"><feGaussianBlur stdDeviation="8"/></filter>
<filter id="blur20" x="-30%" y="-30%" width="160%" height="160%"><feGaussianBlur stdDeviation="20"/></filter>
<filter id="blur40" x="-50%" y="-50%" width="200%" height="200%"><feGaussianBlur stdDeviation="40"/></filter><linearGradient id="wall5" x1="0" y1="0" x2="0" y2="1"><stop offset="0" stop-color="#3C6B76"/><stop offset="1" stop-color="#26505A"/></linearGradient><linearGradient id="glass" x1="0" y1="0" x2="1" y2="1"><stop offset="0" stop-color="#F4FAF8"/><stop offset="0.5" stop-color="#BFD8D8"/><stop offset="1" stop-color="#8DB4B8"/></linearGradient><linearGradient id="felt" x1="0" y1="0" x2="0" y2="1"><stop offset="0" stop-color="#2E6B5C"/><stop offset="1" stop-color="#235447"/></linearGradient><radialGradient id="vig" cx="0.5" cy="0.5" r="0.78"><stop offset="0.45" stop-color="#14262c" stop-opacity="0"/><stop offset="1" stop-color="#14262c" stop-opacity="0.38"/></radialGradient><radialGradient id="lightwash" cx="0.1" cy="0.05" r="0.9"><stop offset="0" stop-color="#FFF3D0" stop-opacity="0.55"/><stop offset="1" stop-color="#FFF3D0" stop-opacity="0"/></radialGradient></defs>
<rect width="1920" height="1080" fill="url(#wall5)"/>
<g filter="url(#pieceFlat)" ><path d="M38 110H302Q310 110 310 118V622Q310 630 302 630H38Q30 630 30 622V118Q30 110 38 110Z" fill="#2F5E69" stroke="#2a373d" stroke-width="2.4" stroke-linejoin="round" stroke-linecap="round" opacity="0.9"/><path d="M354 110H618Q626 110 626 118V622Q626 630 618 630H354Q346 630 346 622V118Q346 110 354 110Z" fill="#2F5E69" stroke="#2a373d" stroke-width="2.4" stroke-linejoin="round" stroke-linecap="round" opacity="0.9"/><path d="M670 110H934Q942 110 942 118V622Q942 630 934 630H670Q662 630 662 622V118Q662 110 670 110Z" fill="#2F5E69" stroke="#2a373d" stroke-width="2.4" stroke-linejoin="round" stroke-linecap="round" opacity="0.9"/><path d="M986 110H1250Q1258 110 1258 118V622Q1258 630 1250 630H986Q978 630 978 622V118Q978 110 986 110Z" fill="#2F5E69" stroke="#2a373d" stroke-width="2.4" stroke-linejoin="round" stroke-linecap="round" opacity="0.9"/><path d="M1302 110H1566Q1574 110 1574 118V622Q1574 630 1566 630H1302Q1294 630 1294 622V118Q1294 110 1302 110Z" fill="#2F5E69" stroke="#2a373d" stroke-width="2.4" stroke-linejoin="round" stroke-linecap="round" opacity="0.9"/><path d="M1618 110H1882Q1890 110 1890 118V622Q1890 630 1882 630H1618Q1610 630 1610 622V118Q1610 110 1618 110Z" fill="#2F5E69" stroke="#2a373d" stroke-width="2.4" stroke-linejoin="round" stroke-linecap="round" opacity="0.9"/></g>
<g filter="url(#piece)" ><path d="M0 636H1920Q1920 636 1920 636V658Q1920 658 1920 658H0Q0 658 0 658V636Q0 636 0 636Z" fill="#7C5233" stroke="#2a373d" stroke-width="2.6" stroke-linejoin="round" stroke-linecap="round"/></g>
<g filter="url(#piece)" ><path d="M300 880L360 700H400L460 880Z" fill="#7C5233" stroke="#2a373d" stroke-width="2.4" stroke-linejoin="round" stroke-linecap="round"/><path d="M110 470A190 300 0 1 0 490 470A190 300 0 1 0 110 470Z" fill="#B98F3E" stroke="#2a373d" stroke-width="3" stroke-linejoin="round" stroke-linecap="round"/><path d="M134 470A166 276 0 1 0 466 470A166 276 0 1 0 134 470Z" fill="url(#glass)" stroke="#2a373d" stroke-width="2.4" stroke-linejoin="round" stroke-linecap="round"/><path d="M190 330Q200 250 260 200L240 300Q216 340 196 420Z" fill="#ffffff" stroke="none" opacity="0.5"/><path d="M330 640Q380 600 410 520L404 590Q380 650 340 690Z" fill="#ffffff" stroke="none" opacity="0.3"/></g>
<g filter="url(#piece)" ><path d="M1484 250H1876Q1880 250 1880 254V266Q1880 270 1876 270H1484Q1480 270 1480 266V254Q1480 250 1484 250Z" fill="#A9784A" stroke="#2a373d" stroke-width="2.4" stroke-linejoin="round" stroke-linecap="round"/><path d="M1500 270H1514Q1514 270 1514 270V310Q1514 310 1514 310H1500Q1500 310 1500 310V270Q1500 270 1500 270Z" fill="#7C5233" stroke="#2a373d" stroke-width="1.5" stroke-linejoin="round" stroke-linecap="round"/><path d="M1526 200A34 34 0 1 0 1594 200A34 34 0 1 0 1526 200Z" fill="#CFE3E0" stroke="#B98F3E" stroke-width="4" stroke-linejoin="round" stroke-linecap="round"/><path d="M1584 224L1620 262" fill="none" stroke="#7C5233" stroke-width="9" stroke-linecap="round" stroke-linejoin="round" /><path d="M1686 190H1710Q1716 190 1716 196V244Q1716 250 1710 250H1686Q1680 250 1680 244V196Q1680 190 1686 190Z" fill="#7C5233" stroke="#2a373d" stroke-width="2.2" stroke-linejoin="round" stroke-linecap="round"/><path d="M1672 240H1724Q1728 240 1728 244V256Q1728 260 1724 260H1672Q1668 260 1668 256V244Q1668 240 1672 240Z" fill="#8A5A36" stroke="#2a373d" stroke-width="2.2" stroke-linejoin="round" stroke-linecap="round"/><path d="M1763 232H1867Q1870 232 1870 235V247Q1870 250 1867 250H1763Q1760 250 1760 247V235Q1760 232 1763 232Z" fill="#EADFC8" stroke="#2a373d" stroke-width="2" stroke-linejoin="round" stroke-linecap="round"/><path d="M1776 232V244M1796 232V240M1816 232V244M1836 232V240M1856 232V244" fill="none" stroke="#2a373d" stroke-width="2" stroke-linecap="round" stroke-linejoin="round" /><path d="M1790 340V620" fill="none" stroke="#B98F3E" stroke-width="10" stroke-linecap="round" stroke-linejoin="round" /><path d="M1700 340Q1790 250 1880 340Z" fill="#E5B85A" stroke="#2a373d" stroke-width="2.6" stroke-linejoin="round" stroke-linecap="round"/></g>
<ellipse cx="1790" cy="400" rx="170" ry="120" fill="#F0C873" opacity="0.28" filter="url(#blur20)"/>
<g filter="url(#piece)" ><path d="M0 700H1920V1080H0Z" fill="#9A6A44" stroke="#2a373d" stroke-width="2.6" stroke-linejoin="round" stroke-linecap="round"/><path d="M0 777.5H1920" fill="none" stroke="#7C5233" stroke-width="2.2" stroke-linecap="round" stroke-linejoin="round" opacity="0.28"/><path d="M0 855H1920" fill="none" stroke="#7C5233" stroke-width="2.2" stroke-linecap="round" stroke-linejoin="round" opacity="0.28"/><path d="M0 932.5H1920" fill="none" stroke="#7C5233" stroke-width="2.2" stroke-linecap="round" stroke-linejoin="round" opacity="0.28"/><path d="M0 1006H1920V1080H0Z" fill="#6A4429" stroke="#2a373d" stroke-width="2.6" stroke-linejoin="round" stroke-linecap="round"/><path d="M0 708H1920" fill="none" stroke="#e8c796" stroke-width="3" stroke-linecap="round" stroke-linejoin="round" opacity="0.7"/></g>
<g filter="url(#piece)" ><path d="M560 800H1360L1400 960H520Z" fill="url(#felt)" stroke="#2a373d" stroke-width="2.4" stroke-linejoin="round" stroke-linecap="round" opacity="0.55"/><path d="M1482 880A78 78 0 1 0 1638 880A78 78 0 1 0 1482 880Z" fill="#B98F3E" stroke="#2a373d" stroke-width="3" stroke-linejoin="round" stroke-linecap="round"/><path d="M1498 880A62 62 0 1 0 1622 880A62 62 0 1 0 1498 880Z" fill="url(#glass)" stroke="#2a373d" stroke-width="2" stroke-linejoin="round" stroke-linecap="round"/><path d="M1600 940L1690 1020" fill="#B98F3E" stroke="#B98F3E" stroke-width="12" stroke-linejoin="round" stroke-linecap="round"/><path d="M1600 940L1690 1020" fill="none" stroke="#DDB765" stroke-width="8" stroke-linecap="round" stroke-linejoin="round" /><path d="M110 960A70 70 0 1 0 250 960A70 70 0 1 0 110 960Z" fill="url(#glass)" stroke="#B98F3E" stroke-width="4" stroke-linejoin="round" stroke-linecap="round"/><path d="M230 1010L290 1060" fill="none" stroke="#7C5233" stroke-width="10" stroke-linecap="round" stroke-linejoin="round" /><g transform="rotate(8 1785 825)"><path d="M1720 780H1850V870H1720Z" fill="#FBF8F0" stroke="#2a373d" stroke-width="2" stroke-linejoin="round" stroke-linecap="round"/><path d="M1822 870L1850 842V870Z" fill="#e3dac4" stroke="#2a373d" stroke-width="1.6" stroke-linejoin="round" stroke-linecap="round"/></g><g transform="rotate(-10 1840 1000)"><path d="M1824 958H1856L1870 976V1036Q1870 1042 1864 1042H1816Q1810 1042 1810 1036V976Z" fill="#E5B85A" stroke="#2a373d" stroke-width="2" stroke-linejoin="round" stroke-linecap="round"/><path d="M1834.5 973A5.5 5.5 0 1 0 1845.5 973A5.5 5.5 0 1 0 1834.5 973Z" fill="#2a373d" stroke="none" opacity="0.65"/><path d="M1840 973Q1854 946 1870 950" fill="none" stroke="#6b5a40" stroke-width="2" stroke-linecap="round" stroke-linejoin="round" /></g></g>
<rect width="1920" height="1080" fill="url(#lightwash)"/>
<rect width="1920" height="1080" fill="url(#vig)"/>
</svg>
