<svg xmlns="http://www.w3.org/2000/svg" viewBox="0 0 768 1024" width="768" height="1024">
<title>Nagi (happy)</title>
<defs>
<filter id="piece" x="-6%" y="-6%" width="112%" height="112%" color-interpolation-filters="sRGB">
  <feTurbulence type="fractalNoise" baseFrequency="0.016" numOctaves="2" seed="7" result="warp"/>
  <feDisplacementMap in="SourceGraphic" in2="warp" scale="5" xChannelSelector="R" yChannelSelector="G" result="shape"/>
  <feTurbulence type="fractalNoise" baseFrequency="0.55" numOctaves="3" seed="2" result="fibre"/>
  <feDiffuseLighting in="fibre" surfaceScale="0.8" lighting-color="#ffffff" result="lit"><feDistantLight azimuth="225" elevation="70"/></feDiffuseLighting>
  <feComposite in="shape" in2="lit" operator="arithmetic" k1="1.1" k2="0" k3="0" k4="0" result="tex"/>
  <feComposite in="tex" in2="shape" operator="in" result="body"/>
  <feDropShadow in="body" dx="5" dy="8" stdDeviation="4.5" flood-color="#14262c" flood-opacity="0.34"/>
</filter>
<filter id="pieceSoft" x="-6%" y="-6%" width="112%" height="112%" color-interpolation-filters="sRGB">
  <feTurbulence type="fractalNoise" baseFrequency="0.012" numOctaves="2" seed="11" result="warp"/>
  <feDisplacementMap in="SourceGraphic" in2="warp" scale="7" xChannelSelector="R" yChannelSelector="G" result="shape"/>
  <feTurbulence type="fractalNoise" baseFrequency="0.5" numOctaves="3" seed="5" result="fibre"/>
  <feDiffuseLighting in="fibre" surfaceScale="0.7" lighting-color="#ffffff" result="lit"><feDistantLight azimuth="225" elevation="72"/></feDiffuseLighting>
  <feComposite in="shape" in2="lit" operator="arithmetic" k1="1.08" k2="0" k3="0" k4="0" result="tex"/>
  <feComposite in="tex" in2="shape" operator="in" result="body"/>
  <feDropShadow in="body" dx="8" dy="12" stdDeviation="9" flood-color="#14262c" flood-opacity="0.28"/>
</filter>
<filter id="pieceFlat" x="-4%" y="-4%" width="108%" height="108%" color-interpolation-filters="sRGB">
  <feTurbulence type="fractalNoise" baseFrequency="0.02" numOctaves="2" seed="4" result="warp"/>
  <feDisplacementMap in="SourceGraphic" in2="warp" scale="3" xChannelSelector="R" yChannelSelector="G" result="shape"/>
  <feTurbulence type="fractalNoise" baseFrequency="0.6" numOctaves="3" seed="9" result="fibre"/>
  <feDiffuseLighting in="fibre" surfaceScale="0.7" lighting-color="#ffffff" result="lit"><feDistantLight azimuth="225" elevation="72"/></feDiffuseLighting>
  <feComposite in="shape" in2="lit" operator="arithmetic" k1="1.08" k2="0" k3="0" k4="0" result="tex"/>
  <feComposite in="tex" in2="shape" operator="in"/>
</filter>
<filter id="blur8" x="-20%" y="-20%" width="140%" height="140%"><feGaussianBlur stdDeviation="8"/></filter>
<filter id="blur20" x="-30%" y="-30%" width="160%" height="160%"><feGaussianBlur stdDeviation="20"/></filter>
<filter id="blur40" x="-50%" y="-50%" width="200%" height="200%"><feGaussianBlur stdDeviation="40"/></filter></defs>
<ellipse cx="384" cy="985" rx="190" ry="20" fill="#14262c" opacity="0.28" filter="url(#blur8)"/>
<g filter="url(#piece)" ><path d="M300 590L468 590L462 668L306 668Z" fill="#34414A" stroke="#2a373d" stroke-width="2.4" stroke-linejoin="round" stroke-linecap="round"/><path d="M318 640L378 640L374 925L312 925Z" fill="#34414A" stroke="#2a373d" stroke-width="2.4" stroke-linejoin="round" stroke-linecap="round"/><path d="M392 640L452 640L460 925L398 925Z" fill="#2b3841" stroke="#2a373d" stroke-width="2.4" stroke-linejoin="round" stroke-linecap="round"/><path d="M300 925L376 925L384 960Q386 977 362 977L294 977Q284 972 290 950Z" fill="#5A4332" stroke="#2a373d" stroke-width="2.4" stroke-linejoin="round" stroke-linecap="round"/><path d="M392 925L468 925L480 950Q486 972 472 977L406 977Q382 977 388 960Z" fill="#5A4332" stroke="#2a373d" stroke-width="2.4" stroke-linejoin="round" stroke-linecap="round"/><path d="M296 962H380M396 962H478" fill="none" stroke="#8b6a4e" stroke-width="3" stroke-linecap="round" stroke-linejoin="round" /></g>
<g filter="url(#piece)" ><path d="M292 382Q262 414 258 500L250 592Q262 602 284 598L298 520Q304 440 310 394Z" fill="#2F7F7A" stroke="#2a373d" stroke-width="2.4" stroke-linejoin="round" stroke-linecap="round"/><path d="M252 590Q262 602 284 598L286 612L254 612Z" fill="#EADFC8" stroke="#2a373d" stroke-width="2.4" stroke-linejoin="round" stroke-linecap="round"/><path d="M247 622A21 25 0 1 0 289 622A21 25 0 1 0 247 622Z" fill="#E8BC98" stroke="#2a373d" stroke-width="2.4" stroke-linejoin="round" stroke-linecap="round"/></g>
<g filter="url(#piece)" ><path d="M364 330H404L408 372H360Z" fill="#CF9E7C" stroke="#2a373d" stroke-width="2.4" stroke-linejoin="round" stroke-linecap="round"/><path d="M296 372Q340 352 384 358Q430 352 472 372Q490 420 486 520L482 620Q384 642 286 620L282 520Q278 420 296 372Z" fill="#2F7F7A" stroke="#2a373d" stroke-width="2.4" stroke-linejoin="round" stroke-linecap="round"/><path d="M440 376Q482 400 486 520L482 620Q452 630 428 628Q452 520 440 376Z" fill="#245E5C" stroke="none" opacity="0.5"/><path d="M352 362L384 446L416 362Q384 376 352 362Z" fill="#EADFC8" stroke="#2a373d" stroke-width="2.4" stroke-linejoin="round" stroke-linecap="round"/><path d="M338 362L352 362L384 446L376 470L330 380Z" fill="#2A7370" stroke="#2a373d" stroke-width="2.4" stroke-linejoin="round" stroke-linecap="round"/><path d="M430 362L416 362L384 446L392 470L438 380Z" fill="#2A7370" stroke="#2a373d" stroke-width="2.4" stroke-linejoin="round" stroke-linecap="round"/><path d="M384 446V626" fill="none" stroke="#1d5654" stroke-width="3" stroke-linecap="round" stroke-linejoin="round" /><path d="M340 520H378Q384 520 384 526V560Q384 566 378 566H340Q334 566 334 560V526Q334 520 340 520Z" fill="#2A7370" stroke="#2a373d" stroke-width="2" stroke-linejoin="round" stroke-linecap="round"/><path d="M338 530H380" fill="none" stroke="#1d5654" stroke-width="2" stroke-linecap="round" stroke-linejoin="round" /></g>
<g filter="url(#piece)" ><path d="M434 360L470 378L326 614L290 598Z" fill="#8A5A36" stroke="#2a373d" stroke-width="2" stroke-linejoin="round" stroke-linecap="round"/><path d="M440 372L304 598" fill="none" stroke="#c58f60" stroke-width="2" stroke-linecap="round" stroke-linejoin="round" stroke-dasharray="6 6"/><path d="M250 572H326Q340 572 340 586V656Q340 670 326 670H250Q236 670 236 656V586Q236 572 250 572Z" fill="#8A5A36" stroke="#2a373d" stroke-width="2.4" stroke-linejoin="round" stroke-linecap="round"/><path d="M236 586Q236 572 250 572H326Q340 572 340 586V616Q288 636 236 616Z" fill="#7C4F2E" stroke="#2a373d" stroke-width="2.4" stroke-linejoin="round" stroke-linecap="round"/><path d="M248 598Q288 612 328 598" fill="none" stroke="#c58f60" stroke-width="2" stroke-linecap="round" stroke-linejoin="round" stroke-dasharray="6 6"/><path d="M280 626A8 8 0 1 0 296 626A8 8 0 1 0 280 626Z" fill="#DDB765" stroke="#2a373d" stroke-width="2" stroke-linejoin="round" stroke-linecap="round"/></g>
<g filter="url(#piece)" ><g transform="rotate(-8 450 570)"><path d="M398 500H494Q500 500 500 506V628Q500 634 494 634H398Q392 634 392 628V506Q392 500 398 500Z" fill="#FBF8F0" stroke="#2a373d" stroke-width="2.4" stroke-linejoin="round" stroke-linecap="round"/><path d="M397 500H405Q410 500 410 505V629Q410 634 405 634H397Q392 634 392 629V505Q392 500 397 500Z" fill="#C7B58F" stroke="#2a373d" stroke-width="2.4" stroke-linejoin="round" stroke-linecap="round"/><path d="M470 500V548L478 540L486 548V500Z" fill="#E5B85A" stroke="#2a373d" stroke-width="1.6" stroke-linejoin="round" stroke-linecap="round"/><path d="M416 514H492" fill="none" stroke="#e4dcc8" stroke-width="2" stroke-linecap="round" stroke-linejoin="round" /></g><path d="M470 386Q504 424 502 506Q498 548 472 566L440 546Q462 502 456 436Z" fill="#2F7F7A" stroke="#2a373d" stroke-width="2.4" stroke-linejoin="round" stroke-linecap="round"/><path d="M450 540Q466 560 486 560L482 590L444 580Z" fill="#EADFC8" stroke="#2a373d" stroke-width="2" stroke-linejoin="round" stroke-linecap="round"/><path d="M464 590A20 22 0 1 0 504 590A20 22 0 1 0 464 590Z" fill="#E8BC98" stroke="#2a373d" stroke-width="2.4" stroke-linejoin="round" stroke-linecap="round"/></g>
<g transform="rotate(2 384 340)"><g filter="url(#piece)" ><path d="M282 242A14 22 0 1 0 310 242A14 22 0 1 0 282 242Z" fill="#E8BC98" stroke="#2a373d" stroke-width="2.4" stroke-linejoin="round" stroke-linecap="round"/><path d="M458 242A14 22 0 1 0 486 242A14 22 0 1 0 458 242Z" fill="#E8BC98" stroke="#2a373d" stroke-width="2.4" stroke-linejoin="round" stroke-linecap="round"/><path d="M296 234A88 98 0 1 0 472 234A88 98 0 1 0 296 234Z" fill="#E8BC98" stroke="#2a373d" stroke-width="2.4" stroke-linejoin="round" stroke-linecap="round"/><path d="M446 158Q480 190 482 246Q478 292 452 316Q462 262 446 158Z" fill="#CF9E7C" stroke="none" opacity="0.45"/><path d="M290 240C282 150 330 112 392 112C456 112 494 160 480 240C474 206 458 186 436 176C408 196 350 190 322 176C304 192 294 214 290 240Z" fill="#3A2A22" stroke="#2a373d" stroke-width="2.4" stroke-linejoin="round" stroke-linecap="round"/><path d="M392 112C400 92 424 90 434 102C420 104 410 110 404 122Z" fill="#3A2A22" stroke="#2a373d" stroke-width="2.4" stroke-linejoin="round" stroke-linecap="round"/><path d="M322 152C340 128 370 119 396 119C372 126 346 142 332 168Z" fill="#6A4B3C" stroke="none" opacity="0.9"/></g><ellipse cx="336" cy="276" rx="14" ry="8" fill="#E08B7A" opacity="0.5"/><ellipse cx="432" cy="276" rx="14" ry="8" fill="#E08B7A" opacity="0.5"/><path d="M384 258Q389 270 381 273" fill="none" stroke="#CF9E7C" stroke-width="3" stroke-linecap="round" stroke-linejoin="round" /><path d="M337 251Q350 235 363 251" fill="none" stroke="#2a2328" stroke-width="5" stroke-linecap="round" stroke-linejoin="round" /><path d="M405 251Q418 235 431 251" fill="none" stroke="#2a2328" stroke-width="5" stroke-linecap="round" stroke-linejoin="round" /><path d="M333 220Q350 208 366 217" fill="none" stroke="#3A2A22" stroke-width="5" stroke-linecap="round" stroke-linejoin="round" /><path d="M402 217Q418 208 435 220" fill="none" stroke="#3A2A22" stroke-width="5" stroke-linecap="round" stroke-linejoin="round" /><path d="M364 282Q384 318 404 282Z" fill="#7a2f2f" stroke="#8a4a3a" stroke-width="3" stroke-linejoin="round"/><path d="M373 297Q384 290 395 297Q384 306 373 297Z" fill="#D9737A"/></g>
<g filter="url(#pieceFlat)" ><path d="M612 124Q619.28 142.72 638 150Q619.28 157.28 612 176Q604.72 157.28 586 150Q604.72 142.72 612 124Z" fill="#F0C873" stroke="#2a373d" stroke-width="2" stroke-linejoin="round" stroke-linecap="round"/><path d="M660 210Q664.48 221.52 676 226Q664.48 230.48 660 242Q655.52 230.48 644 226Q655.52 221.52 660 210Z" fill="#F5F0E6" stroke="#2a373d" stroke-width="2" stroke-linejoin="round" stroke-linecap="round"/><path d="M150 170Q155.6 184.4 170 190Q155.6 195.6 150 210Q144.4 195.6 130 190Q144.4 184.4 150 170Z" fill="#F0C873" stroke="#2a373d" stroke-width="2" stroke-linejoin="round" stroke-linecap="round"/></g>
</svg>
